<?xml version="1.0" encoding="utf-8"?>
<!-- Generator: Adobe Illustrator 13.0.0, SVG Export Plug-In . SVG Version: 6.00 Build 14948)  -->
<!DOCTYPE svg PUBLIC "-//W3C//DTD SVG 1.1//EN" "http://www.w3.org/Graphics/SVG/1.1/DTD/svg11.dtd">
<svg version="1.1" id="Layer_1" xmlns="http://www.w3.org/2000/svg" xmlns:xlink="http://www.w3.org/1999/xlink" 
     x="0px" 
     y="0px" 
     width="163.779px" 
     height="31.521px" 
     viewBox="0 0 163.779 31.521" 
     enable-background="new 0 0 163.779 31.521"
     xml:space="preserve">
<path fill="#E31937" d="M34.137,19.762h-2.052v-4.256h2.052V19.762z M132.322,20.329h-1.951V8.982h1.951V20.329z M110.322,12.639
	h-1.957V8.982h1.957V12.639z M76.375,11.063V5.642h-3.152V0h-9.331v5.642h-7.346l-2.805,9.93l-2.71-9.93h-9.016l7.156,18.819
	l-2.617,7.061h9.141l8.164-21.372v14.404h9.363V11.063H76.375z M163.779,24.554V10.592c0-1.578-0.662-2.933-1.984-4.066
	c-1.262-1.074-2.648-1.608-4.191-1.578c-2.555,0.032-4.445,0.724-5.676,2.048l-0.033-1.766h-8.916v19.323h9.266V11.063h1.921v13.491
	H163.779z M43.213,24.554v-12.42c0-2.457-0.976-4.348-2.866-5.704c-1.767-1.261-4.035-1.891-6.841-1.859
	c-3.278,0.031-5.832,0.693-7.691,1.956c-1.608,1.069-2.397,2.363-2.397,3.907v0.853h8.763V8.982h1.957v3.592l-4.477,0.097
	c-4.6,0.092-6.936,1.922-6.965,5.454c-0.065,4.475,1.984,6.713,6.113,6.713c2.489,0,4.381-0.916,5.674-2.773l0.033,2.489H43.213z
	 M120.06,14.687c-0.062-3.246-0.755-5.642-2.048-7.154c-1.67-1.985-4.537-2.962-8.635-2.962c-3.469,0-5.961,0.504-7.473,1.542
	c-2.175,1.482-3.246,4.352-3.246,8.574c0,4.13,1.135,6.968,3.404,8.513c1.545,1.072,3.971,1.606,7.281,1.639
	c3.184,0.031,5.609-0.473,7.282-1.578c1.479-0.975,2.52-2.52,3.089-4.6c0.094-0.41,0.156-0.757,0.189-1.07h-9.551v2.739h-1.986
	v-4.507h11.631C120.031,15.413,120.06,15.035,120.06,14.687 M142.029,14.687c0-4.189-1.072-6.997-3.214-8.509
	c-1.482-1.042-3.972-1.607-7.472-1.607c-3.498,0-5.988,0.536-7.47,1.576c-2.11,1.513-3.183,4.351-3.183,8.54
	c0,4.257,1.072,7.093,3.183,8.573c1.481,1.041,3.972,1.578,7.47,1.578c3.469,0,5.957-0.504,7.472-1.578
	C140.957,21.748,142.029,18.879,142.029,14.687 M21.908,6.557c0.063-1.828-0.539-3.373-1.673-4.633C19.07,0.63,17.523,0,15.538,0H0
	v24.554h9.834v-9.141h2.174v9.141h9.867v-7.753c0-1.388-0.253-2.396-0.789-3.058c-0.754-0.946-1.542-1.546-2.332-1.828
	c1.07-0.63,1.828-1.261,2.238-1.892C21.527,9.204,21.842,8.036,21.908,6.557 M98.061,24.554V10.149c0-1.48-0.568-2.711-1.674-3.72
	c-1.1-0.977-2.426-1.481-3.97-1.481c-1.104,0-2.205,0.188-3.31,0.567c-1.104,0.378-1.922,0.851-2.458,1.387V0h-9.393v24.554h9.393
	V11.063h1.954v13.491H98.061z M12.041,10.053H9.896V4.694h2.146V10.053z"/>
</svg>
